<svg width="68" height="68" viewBox="0 0 68 68" fill="none" xmlns="http://www.w3.org/2000/svg">
<path d="M65.1667 53.8333C65.1667 55.3362 64.5697 56.7776 63.507 57.8403C62.4443 58.903 61.0029 59.5 59.5 59.5H8.50004C6.99715 59.5 5.55581 58.903 4.4931 57.8403C3.4304 56.7776 2.83337 55.3362 2.83337 53.8333V22.6667C2.83337 21.1638 3.4304 19.7224 4.4931 18.6597C5.55581 17.597 6.99715 17 8.50004 17H19.8334L25.5 8.5H42.5L48.1667 17H59.5C61.0029 17 62.4443 17.597 63.507 18.6597C64.5697 19.7224 65.1667 21.1638 65.1667 22.6667V53.8333Z" stroke="white" stroke-width="2" stroke-linecap="round" stroke-linejoin="round"/>
<path d="M34 48.1667C40.2592 48.1667 45.3333 43.0926 45.3333 36.8333C45.3333 30.5741 40.2592 25.5 34 25.5C27.7407 25.5 22.6666 30.5741 22.6666 36.8333C22.6666 43.0926 27.7407 48.1667 34 48.1667Z" stroke="white" stroke-width="2" stroke-linecap="round" stroke-linejoin="round"/>
</svg>
