<svg width="16" height="14" viewBox="0 0 16 14" fill="none" xmlns="http://www.w3.org/2000/svg">
<path d="M15.9775 7.9057C15.9775 7.90562 15.9775 7.90558 15.9775 7.9055L12.9566 0.32037C12.8925 0.159206 12.7098 0.0805277 12.5486 0.14464C12.5485 0.144679 12.5484 0.144719 12.5483 0.144797L0.293041 5.02472C0.243062 5.04632 0.199718 5.08079 0.167407 5.1246C0.0654866 5.17757 0.00109929 5.28239 0 5.39723V13.5634C0 13.7369 0.140631 13.8775 0.314084 13.8775H13.5056C13.6791 13.8775 13.8197 13.7369 13.8197 13.5634V9.10342L15.8022 8.31381C15.9633 8.24954 16.0418 8.06682 15.9775 7.9057ZM13.1915 13.2493H0.628168V5.71131H13.1915V13.2493ZM5.2405 5.08471L10.4995 2.98914C10.9689 3.48249 11.6192 3.76289 12.3002 3.76556L12.8247 5.08471H5.2405ZM13.8197 8.42877V5.39723C13.8197 5.22377 13.6791 5.08314 13.5056 5.08314H13.5006L12.8351 3.41159C12.8277 3.39765 12.8191 3.38438 12.8093 3.37201C12.7756 3.22074 12.6355 3.11753 12.4811 3.13017C11.8475 3.18792 11.2277 2.92103 10.8343 2.42097C10.7365 2.30016 10.5644 2.27013 10.4314 2.35061C10.4164 2.35238 10.4016 2.35513 10.3871 2.35878L3.96657 4.91542C3.88887 4.94589 3.82672 5.00631 3.79414 5.08314H1.8443L12.4892 0.844577L15.278 7.84708L13.8197 8.42877Z" fill="#ADAFBB"/>
<path d="M1.4806 11.1288C2.0904 11.3091 2.56757 11.7856 2.74856 12.3952C2.78825 12.5283 2.91063 12.6194 3.04945 12.6195C3.06575 12.6184 3.08192 12.616 3.09782 12.6122C3.11192 12.6162 3.12633 12.6192 3.14085 12.621H10.6789C10.6918 12.6193 10.7046 12.6167 10.7172 12.6132C10.8741 12.6513 11.0323 12.5551 11.0705 12.3982C11.0706 12.3976 11.0707 12.397 11.0709 12.3965C11.2514 11.7863 11.7286 11.309 12.3388 11.1285C12.4868 11.0833 12.5787 10.9358 12.5543 10.783C12.5585 10.7678 12.5615 10.7522 12.5634 10.7365V8.22386C12.5615 8.20811 12.5584 8.19257 12.554 8.17737C12.5786 8.02453 12.4866 7.87699 12.3385 7.83188C11.7283 7.6514 11.2512 7.17395 11.0712 6.56361C11.0257 6.41462 10.8768 6.32243 10.7232 6.34815C10.7086 6.34411 10.6938 6.34116 10.6789 6.33936H3.14085C3.12503 6.34124 3.10937 6.34438 3.09405 6.34878C2.94129 6.32444 2.79391 6.41635 2.74856 6.56424C2.56792 7.17431 2.09071 7.6514 1.4806 7.83188C1.33263 7.87711 1.24068 8.02457 1.26514 8.17737C1.26106 8.19264 1.25811 8.20815 1.25635 8.22386V10.7365C1.25815 10.7513 1.2611 10.7659 1.26514 10.7802C1.23939 10.934 1.33153 11.0831 1.4806 11.1288ZM1.88452 8.35137C2.5152 8.09807 3.01506 7.5982 3.26837 6.96752H10.551C10.8045 7.5982 11.3045 8.09807 11.9352 8.35137V10.609C11.3047 10.8626 10.8049 11.3624 10.5514 11.9929H3.26837C3.01479 11.3624 2.515 10.8626 1.88452 10.609V8.35137Z" fill="#ADAFBB"/>
<path d="M6.9099 11.3647C7.95069 11.3647 8.7944 10.521 8.7944 9.4802C8.7944 8.43941 7.95069 7.5957 6.9099 7.5957C5.8691 7.5957 5.02539 8.43941 5.02539 9.4802C5.02641 10.5206 5.86953 11.3637 6.9099 11.3647ZM6.9099 8.22387C7.60375 8.22387 8.16623 8.78635 8.16623 9.4802C8.16623 10.174 7.60375 10.7365 6.9099 10.7365C6.21604 10.7365 5.65356 10.174 5.65356 9.4802C5.65356 8.78635 6.21604 8.22387 6.9099 8.22387Z" fill="#ADAFBB"/>
<path d="M3.45489 9.95153C3.71507 9.95153 3.92602 9.74058 3.92602 9.4804C3.92602 9.22022 3.71507 9.00928 3.45489 9.00928C3.19471 9.00928 2.98376 9.22022 2.98376 9.4804C2.98376 9.74062 3.19471 9.95153 3.45489 9.95153ZM3.45489 9.32336C3.54162 9.32336 3.61193 9.39368 3.61193 9.4804C3.61193 9.56713 3.54162 9.63745 3.45489 9.63745C3.36816 9.63745 3.29785 9.56713 3.29785 9.4804C3.29785 9.39368 3.36816 9.32336 3.45489 9.32336Z" fill="#ADAFBB"/>
<path d="M10.3648 9.95153C10.625 9.95153 10.8359 9.74058 10.8359 9.4804C10.8359 9.22022 10.625 9.00928 10.3648 9.00928C10.1046 9.00928 9.89368 9.22022 9.89368 9.4804C9.89368 9.74062 10.1046 9.95153 10.3648 9.95153ZM10.3648 9.32336C10.4515 9.32336 10.5218 9.39368 10.5218 9.4804C10.5218 9.56713 10.4515 9.63745 10.3648 9.63745C10.2781 9.63745 10.2078 9.56713 10.2078 9.4804C10.2078 9.39368 10.2781 9.32336 10.3648 9.32336Z" fill="#ADAFBB"/>
</svg>
