<svg width="16" height="16" viewBox="0 0 16 16" fill="none" xmlns="http://www.w3.org/2000/svg">
<g clip-path="url(#clip0)">
<path d="M14.1494 6.60291H11.5856C11.7864 6.32533 11.9603 6.03468 12.0895 5.73621C12.2523 5.35926 12.3361 4.98914 12.338 4.63587C12.3423 3.92664 12.0761 3.24964 11.6079 2.77869C11.2094 2.37781 10.6958 2.15698 10.1619 2.15698C9.53626 2.15698 8.95716 2.46155 8.55359 2.96558C8.15003 2.46155 7.57092 2.15698 6.94531 2.15698C6.34997 2.15698 5.79516 2.42468 5.38293 2.9104C4.99084 3.37256 4.77282 3.98328 4.76904 4.63025C4.76696 4.98475 4.84777 5.35609 5.00903 5.73414C5.13671 6.03333 5.3103 6.32472 5.5111 6.60291H3.05871C2.89074 6.60291 2.73559 6.69276 2.65197 6.83863L1.33837 9.13161C1.17809 9.41127 1.17894 9.74477 1.34056 10.0238C1.50133 10.3012 1.7882 10.4668 2.1079 10.4668H3.05175L3.18517 12.8181C3.18273 13.168 3.33214 13.4981 3.59716 13.7263C3.86266 13.9552 4.21179 14.0534 4.55663 13.9966L5.56543 13.8657L5.57312 15.5023C5.57434 15.7603 5.78381 15.9689 6.04187 15.9689H11.8153C12.0742 15.9689 12.2841 15.7589 12.2841 15.5001V11.9799C13.7539 11.0219 14.5387 9.3777 14.6179 7.0879C14.6223 6.96082 14.575 6.83741 14.4866 6.74598C14.3983 6.65455 14.2766 6.60291 14.1494 6.60291ZM6.94531 3.09448C7.45776 3.09448 7.92383 3.49817 8.10474 4.099C8.16443 4.29712 8.3468 4.43262 8.55359 4.43262C8.76038 4.43262 8.94275 4.29712 9.00244 4.099C9.18335 3.49817 9.6493 3.09448 10.1619 3.09448C10.4443 3.09448 10.7218 3.21704 10.943 3.43958C11.2365 3.73487 11.4033 4.16883 11.4005 4.63025C11.3993 4.85682 11.3414 5.10364 11.2289 5.36414C11.0208 5.84559 10.6561 6.31532 10.2537 6.73377C10.2454 6.74159 10.2377 6.74977 10.2301 6.75819C9.6139 7.39344 8.91468 7.90699 8.55237 8.15687C8.32385 8.00062 7.96143 7.74012 7.56909 7.4087C6.724 6.69496 6.13684 5.98866 5.87121 5.36622C5.76062 5.10682 5.7052 4.86121 5.70654 4.63587C5.71154 3.78589 6.26721 3.09448 6.94531 3.09448ZM13.1454 9.59071C12.7936 10.3454 12.2821 10.9082 11.5816 11.3113C11.4362 11.3949 11.3466 11.5499 11.3466 11.7177V15.0314H6.50842L6.5022 13.7021L7.38818 13.4901C7.96863 13.3513 8.45703 12.9654 8.72815 12.4307C9.01685 11.8616 9.38379 11.1165 9.38745 11.109C9.42029 11.0424 9.43579 10.9717 9.43567 10.9021C9.43567 10.7291 9.33948 10.563 9.17395 10.4815C8.94165 10.3671 8.66065 10.4627 8.54639 10.695C8.54273 10.7024 8.17822 11.4424 7.89209 12.0067C7.74561 12.2953 7.48254 12.5037 7.17029 12.5783L5.94677 12.8709L4.427 13.0681C4.42028 13.069 4.41345 13.07 4.40673 13.0712C4.31005 13.088 4.24145 13.0441 4.20922 13.0163C4.17577 12.9874 4.12023 12.9237 4.12267 12.8198C4.12304 12.8072 4.1228 12.7946 4.12206 12.7819L3.97363 10.1643C3.99328 10.1126 4.00402 10.0567 4.00402 9.99806C4.00402 9.73915 3.79406 9.52931 3.53527 9.52931H2.19103L3.33044 7.54042H6.32361C7.24219 8.45192 8.24146 9.07716 8.30676 9.11769C8.38245 9.16444 8.46802 9.18788 8.55359 9.18788C8.63965 9.18788 8.72583 9.1642 8.80176 9.11684C8.86646 9.07643 9.8584 8.45131 10.7739 7.54054H13.6516C13.5827 8.32863 13.4129 9.01662 13.1454 9.59071Z" fill="#ADAFBB"/>
<path d="M8.57849 1.24317C8.8374 1.24317 9.04724 1.03333 9.04724 0.774416V0.437501C9.04724 0.178589 8.8374 -0.03125 8.57849 -0.03125C8.31958 -0.03125 8.10974 0.178589 8.10974 0.437501V0.774416C8.10974 1.03333 8.31958 1.24317 8.57849 1.24317Z" fill="#ADAFBB"/>
<path d="M4.26558 2.49604C4.35714 2.58783 4.47725 2.63373 4.5975 2.63373C4.71725 2.63373 4.837 2.5882 4.92843 2.49689C5.11178 2.31415 5.11215 2.0174 4.92941 1.83405L4.63058 1.53449C4.44784 1.35114 4.15096 1.35077 3.96773 1.53363C3.78438 1.71637 3.78401 2.01312 3.96675 2.19647L4.26558 2.49604Z" fill="#ADAFBB"/>
<path d="M12.6111 2.63373C12.7313 2.63373 12.8515 2.58783 12.943 2.49604L13.2418 2.19647C13.4245 2.01312 13.4241 1.71637 13.2408 1.53363C13.0575 1.35077 12.7607 1.35114 12.5779 1.53449L12.2792 1.83405C12.0964 2.0174 12.0967 2.31415 12.2801 2.49689C12.3716 2.5882 12.4914 2.63373 12.6111 2.63373Z" fill="#ADAFBB"/>
<path d="M2.84119 5.66431H3.198C3.45691 5.66431 3.66675 5.45435 3.66675 5.19556C3.66675 4.93665 3.45691 4.72681 3.198 4.72681H2.84119C2.58228 4.72681 2.37244 4.93665 2.37244 5.19556C2.37244 5.45435 2.58228 5.66431 2.84119 5.66431Z" fill="#ADAFBB"/>
<path d="M14.3225 4.72681H13.959C13.7001 4.72681 13.4902 4.93665 13.4902 5.19556C13.4902 5.45435 13.7001 5.66431 13.959 5.66431H14.3225C14.5814 5.66431 14.7913 5.45435 14.7913 5.19556C14.7913 4.93665 14.5814 4.72681 14.3225 4.72681Z" fill="#ADAFBB"/>
</g>
<defs>
<clipPath id="clip0">
<rect width="16" height="16" fill="white"/>
</clipPath>
</defs>
</svg>
