<svg width="30" height="30" viewBox="0 0 30 30" fill="none" xmlns="http://www.w3.org/2000/svg">
<g clip-path="url(#clip0)">
<path d="M19.799 21.0247L21.1709 18.7986L23.6466 17.9543L23.9209 15.3541L25.7835 13.5204L24.8979 11.0591L25.7835 8.59775L23.9209 6.76406L23.6466 4.16391L21.1709 3.31957L19.7991 1.09342L17.2043 1.40672L15 0L12.7958 1.40684L10.201 1.09354L8.82917 3.31963L6.35347 4.16397L6.07919 6.76412L4.21655 8.59781L5.10214 11.0592L4.21655 13.5205L6.07913 15.3541L6.35341 17.9544L8.82911 18.7987L10.201 21.0248L12.7958 20.7115L15 22.1183L17.2043 20.7115L19.799 21.0247ZM7.4163 11.0592C7.4163 6.8775 10.8184 3.47543 15 3.47543C19.1817 3.47543 22.5838 6.8775 22.5838 11.0592C22.5838 15.2408 19.1817 18.6429 15 18.6429C10.8184 18.6429 7.4163 15.2408 7.4163 11.0592Z" fill="black" fill-opacity="0.5"/>
<path d="M14.9999 5.23438C11.788 5.23438 9.17505 7.84736 9.17505 11.0592C9.17505 14.271 11.788 16.884 14.9999 16.884C18.2117 16.884 20.8247 14.271 20.8247 11.0592C20.8247 7.84736 18.2117 5.23438 14.9999 5.23438Z" fill="black" fill-opacity="0.5"/>
<path d="M12.3809 22.5334L9.29417 22.9061L7.66333 20.2596L7.10892 20.0706L4.71753 27.5451L9.0227 27.3083L12.391 30.0001L14.3731 23.8049L12.3809 22.5334Z" fill="black" fill-opacity="0.5"/>
<path d="M22.3368 20.2596L20.7059 22.9061L17.6193 22.5334L15.6271 23.8049L17.6092 30.0001L20.9774 27.3083L25.2826 27.5451L22.8912 20.0706L22.3368 20.2596Z" fill="black" fill-opacity="0.5"/>
</g>
<defs>
<clipPath id="clip0">
<rect width="30" height="30" fill="white"/>
</clipPath>
</defs>
</svg>
