<svg width="215" height="215" viewBox="0 0 215 215" fill="none" xmlns="http://www.w3.org/2000/svg">
<defs>
<linearGradient id="paint0_linear" x1="85.6031" y1="21.8772" x2="153.936" y2="90.21" gradientUnits="userSpaceOnUse">
<stop stop-color="#4E54C8"/>
<stop offset="1" stop-color="#8F94FB"/>
</linearGradient>
<linearGradient id="paint1_linear" x1="61.0244" y1="124.751" x2="129.357" y2="193.083" gradientUnits="userSpaceOnUse">
<stop stop-color="#4E54C8"/>
<stop offset="1" stop-color="#8F94FB"/>
</linearGradient>
<linearGradient id="paint2_linear" x1="137.04" y1="97.8925" x2="180.794" y2="141.647" gradientUnits="userSpaceOnUse">
<stop stop-color="#4E54C8"/>
<stop offset="1" stop-color="#8F94FB"/>
</linearGradient>
<linearGradient id="paint3_linear" x1="34.1664" y1="73.3138" x2="77.921" y2="117.068" gradientUnits="userSpaceOnUse">
<stop stop-color="#4E54C8"/>
<stop offset="1" stop-color="#8F94FB"/>
</linearGradient>
<clipPath id="clip0">
<rect width="152" height="152" fill="white" transform="translate(0 107.48) rotate(-45)"/>
</clipPath>
</defs>
<g clip-path="url(#clip0)">
<path d="M103.851 3.62914L79.0954 28.3849C77.091 30.3892 77.091 33.6388 79.0954 35.6431L91.3248 47.8726C97.7088 54.2057 97.2243 64.6384 90.5191 70.5475C91.8824 71.6727 93.4001 72.5834 95.0484 73.2635C98.1043 74.5254 101.673 74.7435 105.098 73.8775C116.661 70.9546 125.886 70.2849 133.299 71.8316C140.88 73.4132 145.276 77.1148 147.922 79.7615L152.352 84.1914C154.452 86.2907 157.855 86.2907 159.955 84.1914L170.437 73.7086C171.037 73.109 171.037 72.1371 170.437 71.5375L148.339 49.4394C145.637 46.7371 143.488 43.5921 141.953 40.0918L139.114 33.6195C138.089 31.2824 136.637 29.1572 134.833 27.3527L111.109 3.62914C109.105 1.6248 105.855 1.6248 103.851 3.62914V3.62914Z" fill="url(#paint0_linear)"/>
<path d="M124.441 144.413C123.078 143.288 121.56 142.378 119.912 141.697C116.856 140.436 113.287 140.217 109.863 141.083C93.029 145.493 76.7816 145.613 67.0379 135.199L62.6079 130.769C60.5086 128.67 57.105 128.67 55.0057 130.769L44.5231 141.252C43.9235 141.851 43.9235 142.823 44.5231 143.423L66.6207 165.521C69.3126 168.212 71.4786 171.383 73.0074 174.869L75.8464 181.342C76.8755 183.688 78.3159 185.796 80.1276 187.608L103.851 211.331C105.855 213.336 109.105 213.336 111.109 211.331L135.865 186.576C137.869 184.571 137.869 181.322 135.865 179.317L123.636 167.088C117.251 160.755 117.736 150.322 124.441 144.413Z" fill="url(#paint1_linear)"/>
<path d="M174.869 141.953L181.342 139.114C183.679 138.089 185.804 136.637 187.608 134.833L211.331 111.109C213.336 109.105 213.336 105.855 211.331 103.851L186.576 79.0956C184.571 77.0913 181.322 77.0913 179.318 79.0956L167.088 91.3253C160.755 97.71 150.322 97.2243 144.413 90.5194C143.288 91.8824 142.377 93.4001 141.697 95.0489C140.435 98.1047 140.217 101.674 141.083 105.098C144.006 116.662 144.675 125.886 143.129 133.299C141.547 140.88 137.845 145.276 135.199 147.923L130.769 152.353C128.67 154.452 128.67 157.856 130.769 159.955L141.252 170.438C141.851 171.037 142.823 171.037 143.423 170.438L165.521 148.339C168.224 145.637 171.369 143.488 174.869 141.953Z" fill="url(#paint2_linear)"/>
<path d="M40.0916 73.0074L33.6189 75.8464C31.2728 76.8754 29.1643 78.3159 27.3527 80.1276L3.62914 103.851C1.6248 105.855 1.6248 109.105 3.62914 111.109L28.3849 135.865C30.3892 137.869 33.6388 137.869 35.6431 135.865L47.8726 123.636C54.2053 117.251 64.6389 117.736 70.5478 124.442C71.6727 123.079 72.5834 121.561 73.2639 119.912C74.5254 116.856 74.7435 113.287 73.8778 109.863C69.4677 93.029 69.3483 76.782 79.7619 67.0381L84.1919 62.6081C86.2911 60.5088 86.2911 57.1056 84.1919 55.0064L73.7086 44.523C73.109 43.9235 72.1371 43.9235 71.5375 44.523L49.4399 66.6207C46.748 69.3126 43.5778 71.4785 40.0916 73.0074Z" fill="url(#paint3_linear)"/>
</g>
</svg>
