<svg width="132" height="132" viewBox="0 0 132 132" fill="none" xmlns="http://www.w3.org/2000/svg">
<g clip-path="url(#clip0)">
<path d="M125.423 65.9553L119.434 65.2053C117.613 60.7508 114.998 56.6305 111.747 53.0655L116.15 34.4117C116.331 33.645 116.151 32.8378 115.662 32.2201C115.174 31.6023 114.429 31.2419 113.642 31.2414L113.078 31.2411C113.075 31.2411 113.073 31.2411 113.069 31.2411C105.76 31.2411 99.1728 35.84 96.5818 42.5854C94.7493 41.8571 92.8654 41.2571 90.9442 40.8026C89.5585 40.4749 88.1697 41.3322 87.842 42.7182C87.5143 44.1039 88.3718 45.4927 89.7575 45.8204C96.3201 47.3727 102.174 50.6913 106.789 55.2966C106.957 55.5435 107.167 55.7622 107.414 55.939C110.778 59.4695 113.437 63.7054 115.162 68.4522C115.492 69.3617 116.304 70.0099 117.264 70.13L124.783 71.0713C125.958 71.2185 126.844 72.2227 126.844 73.4071V86.4052C126.844 87.5896 125.958 88.5938 124.783 88.741L117.816 89.6131C116.814 89.7384 115.977 90.4374 115.675 91.4013C113.608 98.0052 109.681 103.845 104.318 108.289C103.727 108.778 103.385 109.506 103.385 110.274V124.524C103.385 125.803 102.344 126.844 101.066 126.844H86.1108C84.8318 126.844 83.7912 125.803 83.7912 124.524V119.093C83.7912 117.669 82.6367 116.515 81.2131 116.515H59.5533C58.1297 116.515 56.9752 117.669 56.9752 119.093V124.524C56.9752 125.803 55.9346 126.844 54.6556 126.844H39.7005C38.4217 126.844 37.3812 125.803 37.3812 124.524V114.462C37.3812 113.516 36.8638 112.647 36.0331 112.196C24.462 105.914 17.2734 93.8402 17.2734 80.6872C17.2734 60.9316 33.3457 44.8593 53.1013 44.8593H56.3319C57.7556 44.8593 58.91 43.7051 58.91 42.2812C58.91 40.8573 57.7556 39.7031 56.3319 39.7031H53.1013C33.9634 39.7031 17.8488 52.8894 13.3616 70.6534H11.4726C7.98959 70.6534 5.15624 67.8198 5.15624 64.337C5.15624 60.8542 7.98959 58.0206 11.4726 58.0206C12.8963 58.0206 14.0508 56.8664 14.0508 55.4425C14.0508 54.0186 12.8963 52.8644 11.4726 52.8644C5.1467 52.8644 0 58.0108 0 64.337C0 70.6632 5.1467 75.8096 11.4726 75.8096H12.4088C12.218 77.4096 12.1172 79.0367 12.1172 80.6872C12.1172 95.2146 19.7829 108.591 32.2247 115.963V124.524C32.2247 128.646 35.5783 132 39.7002 132H54.6551C58.7773 132 62.1309 128.646 62.1309 124.524V121.671H78.6345V124.524C78.6345 128.646 81.9881 132 86.1102 132H101.065C105.187 132 108.541 128.646 108.541 124.524V111.462C113.775 106.859 117.725 101.051 120.063 94.5283L125.422 93.8572C129.172 93.388 132 90.1842 132 86.4052V73.4071C132 69.6283 129.172 66.4245 125.423 65.9553ZM107.417 48.9629C105.494 47.3897 103.434 45.996 101.267 44.7992C102.691 40.7065 106.166 37.6612 110.309 36.7104L107.417 48.9629Z" fill="#727AEF"/>
<path d="M102.627 65.4662C102.148 64.9867 101.483 64.7108 100.805 64.7108C100.127 64.7108 99.4616 64.9867 98.9821 65.4662C98.5025 65.9457 98.2267 66.6109 98.2267 67.2889C98.2267 67.967 98.5023 68.6321 98.9821 69.1117C99.4619 69.5912 100.127 69.8671 100.805 69.8671C101.483 69.8671 102.148 69.5912 102.627 69.1117C103.107 68.6321 103.383 67.967 103.383 67.2889C103.383 66.6109 103.107 65.9457 102.627 65.4662Z" fill="#727AEF"/>
<path d="M75.6013 15.0389C74.1777 15.0389 73.0232 16.1932 73.0232 17.6171V27.8432C73.0232 29.2671 74.1777 30.4213 75.6013 30.4213C77.025 30.4213 78.1794 29.2671 78.1794 27.8432V17.6171C78.1794 16.1934 77.0252 15.0389 75.6013 15.0389Z" fill="#727AEF"/>
<path d="M77.4235 6.44014C76.9443 5.96061 76.2791 5.68475 75.6011 5.68475C74.9228 5.68475 74.2579 5.96061 73.7783 6.44014C73.2988 6.91967 73.0229 7.58483 73.0229 8.26287C73.0229 8.9435 73.2985 9.60607 73.7783 10.0856C74.2579 10.5651 74.9228 10.841 75.6011 10.841C76.2791 10.841 76.9443 10.5651 77.4235 10.0856C77.9031 9.60607 78.1792 8.94092 78.1792 8.26287C78.1792 7.58483 77.9031 6.92225 77.4235 6.44014Z" fill="#727AEF"/>
<path d="M54.6561 0C53.2325 0 52.078 1.15422 52.078 2.57812V6.96092C52.078 8.38482 53.2325 9.53905 54.6561 9.53905C56.0798 9.53905 57.2342 8.38482 57.2342 6.96092V2.57812C57.2342 1.15422 56.08 0 54.6561 0Z" fill="#727AEF"/>
<path d="M29.3746 80.6872C29.3746 79.2633 28.2201 78.109 26.7965 78.109C25.3729 78.109 24.2184 79.2633 24.2184 80.6872L24.2186 80.8241C24.2274 82.2423 25.3801 83.3862 26.7965 83.3862C26.8017 83.3862 26.8071 83.3862 26.8127 83.3862C28.2364 83.3772 29.3836 82.2157 29.3749 80.7918L29.3746 80.6872Z" fill="#727AEF"/>
<path d="M40.7867 100.972C36.3051 98.2449 32.8069 94.0547 30.9367 89.1736C30.427 87.8435 28.9361 87.1786 27.6068 87.6886C26.2773 88.198 25.6124 89.6887 26.1218 91.0185C28.3983 96.9602 32.6545 102.06 38.1064 105.377C38.5251 105.632 38.9874 105.753 39.444 105.753C40.3141 105.753 41.1636 105.313 41.649 104.515C42.3892 103.299 42.0028 101.712 40.7867 100.972Z" fill="#727AEF"/>
<path d="M54.6561 12.3884C48.6854 12.3884 43.828 17.2458 43.828 23.2165C43.828 29.1871 48.6854 34.0446 54.6561 34.0446C60.6268 34.0446 65.4842 29.1871 65.4842 23.2165C65.4842 17.2458 60.6268 12.3884 54.6561 12.3884ZM54.6561 28.8883C51.5286 28.8883 48.9842 26.344 48.9842 23.2165C48.9842 20.089 51.5286 17.5446 54.6561 17.5446C57.7836 17.5446 60.328 20.089 60.328 23.2165C60.328 26.344 57.7836 28.8883 54.6561 28.8883Z" fill="#727AEF"/>
<path d="M87.1404 54.6562H84.8201C85.8395 53.0054 86.4294 51.0628 86.4294 48.9843C86.4294 43.0136 81.572 38.1562 75.6013 38.1562C69.6306 38.1562 64.7732 43.0136 64.7732 48.9843C64.7729 51.0628 65.3628 53.0054 66.3822 54.6562H53.6249C52.2012 54.6562 51.0468 55.8104 51.0468 57.2343C51.0468 58.6582 52.2012 59.8124 53.6249 59.8124H87.1404C88.5641 59.8124 89.7186 58.6582 89.7186 57.2343C89.7186 55.8104 88.5643 54.6562 87.1404 54.6562ZM75.6013 54.6562C72.4738 54.6562 69.9294 52.1118 69.9294 48.9843C69.9294 45.8568 72.4738 43.3124 75.6013 43.3124C78.7288 43.3124 81.2731 45.8568 81.2731 48.9843C81.2731 52.1118 78.7285 54.6562 75.6013 54.6562Z" fill="#727AEF"/>
</g>
<defs>
<clipPath id="clip0">
<rect width="132" height="132" fill="white"/>
</clipPath>
</defs>
</svg>
