<svg width="132" height="132" viewBox="0 0 132 132" fill="none" xmlns="http://www.w3.org/2000/svg">
<path d="M132 66C132 68.4987 131.859 71.0165 131.58 73.4835C131.095 77.771 125.857 79.5968 122.81 76.5505L108.614 62.354C106.6 60.3402 106.6 57.0756 108.614 55.062C110.627 53.0483 113.892 53.0483 115.906 55.062L121.429 60.5857C118.774 32.8788 95.4296 10.3125 66 10.3125C35.0481 10.3125 10.3125 35.426 10.3125 66C10.3125 96.781 35.2231 121.688 66 121.688C86.4059 121.688 105.155 110.545 114.932 92.6078C116.294 90.1073 119.426 89.1853 121.927 90.5479C124.427 91.9107 125.349 95.0426 123.986 97.5428C112.402 118.797 90.1833 132 66 132C29.5188 132 0 102.476 0 66C0 29.5564 29.5546 0 66 0C102.481 0 132 29.5239 132 66ZM66 20.625C63.1522 20.625 60.8438 22.9335 60.8438 25.7812V66C60.8438 67.3674 61.387 68.6792 62.354 69.646L83.6831 90.9751C85.6966 92.9886 88.9616 92.9888 90.9753 90.9751C92.9888 88.9613 92.9888 85.6966 90.9753 83.6831L71.1562 63.8643V25.7812C71.1562 22.9335 68.8478 20.625 66 20.625Z" fill="#727AEF"/>
</svg>
