<svg width="132" height="132" viewBox="0 0 132 132" fill="none" xmlns="http://www.w3.org/2000/svg">
<path d="M118.508 21.3742L67.9772 0.394194C66.7113 -0.131228 65.2884 -0.131486 64.0228 0.394194L13.4916 21.3742C11.567 22.1734 10.3125 24.0524 10.3125 26.1363V51.6404C10.3125 86.7578 31.5379 118.347 64.0515 131.618C65.3003 132.127 66.6994 132.127 67.9486 131.618C100.462 118.347 121.688 86.758 121.688 51.6404V26.1363C121.688 24.0524 120.433 22.1734 118.508 21.3742ZM111.375 51.6404C111.375 81.4938 93.8438 108.976 66 121.243C38.9003 109.303 20.625 82.3028 20.625 51.6404V29.5786L66 10.7392L111.375 29.5786V51.6404ZM60.3008 69.0205L82.4634 46.8582C84.4769 44.8447 87.7416 44.8444 89.7554 46.8582C91.7691 48.872 91.7689 52.1366 89.7551 54.1502L63.9468 79.9585C61.9328 81.9725 58.6681 81.9717 56.6548 79.9585L42.2446 65.5483C40.2309 63.5345 40.2309 60.2699 42.2446 58.2563C44.2584 56.2428 47.5231 56.2426 49.5366 58.2563L60.3008 69.0205Z" fill="#727AEF"/>
</svg>
