<svg width="45" height="45" viewBox="0 0 45 45" fill="none" xmlns="http://www.w3.org/2000/svg">
<g clip-path="url(#clip0)">
<path d="M21.6277 1.56807L16.5605 6.63529C16.1502 7.04556 16.1502 7.71071 16.5605 8.12098L19.0637 10.6242C20.3705 11.9205 20.2713 14.056 18.8988 15.2655C19.1779 15.4958 19.4885 15.6822 19.8259 15.8215C20.4514 16.0797 21.1819 16.1244 21.8829 15.9471C24.2498 15.3488 26.138 15.2118 27.6553 15.5284C29.2072 15.8521 30.1069 16.6098 30.6486 17.1515L31.5554 18.0583C31.9851 18.488 32.6818 18.488 33.1115 18.0583L35.2572 15.9125C35.3799 15.7898 35.3799 15.5909 35.2572 15.4682L30.734 10.9449C30.1808 10.3918 29.741 9.74804 29.4267 9.03157L28.8457 7.70676C28.6359 7.22839 28.3387 6.79338 27.9694 6.42402L23.1134 1.56807C22.7031 1.15781 22.038 1.15781 21.6277 1.56807V1.56807Z" fill="#ADAFBB"/>
<path d="M25.8421 30.385C25.5631 30.1547 25.2524 29.9683 24.915 29.829C24.2895 29.5708 23.559 29.5262 22.8581 29.7034C19.4124 30.6061 16.0867 30.6305 14.0923 28.499L13.1855 27.5922C12.7558 27.1625 12.0591 27.1625 11.6295 27.5922L9.48377 29.7379C9.36105 29.8606 9.36105 30.0596 9.48377 30.1823L14.0069 34.7054C14.5579 35.2564 15.0013 35.9053 15.3142 36.6189L15.8953 37.9438C16.1059 38.424 16.4008 38.8556 16.7716 39.2264L21.6276 44.0824C22.0378 44.4927 22.703 44.4927 23.1132 44.0824L28.1805 39.0152C28.5907 38.6049 28.5907 37.9397 28.1805 37.5295L25.6772 35.0263C24.3704 33.7301 24.4697 31.5945 25.8421 30.385Z" fill="#ADAFBB"/>
<path d="M36.1642 29.8814L37.4893 29.3002C37.9675 29.0904 38.4025 28.7933 38.7717 28.424L43.6277 23.5681C44.038 23.1578 44.038 22.4926 43.6277 22.0824L38.5605 17.0152C38.1502 16.6049 37.4851 16.6049 37.0748 17.0152L34.5715 19.5185C33.2753 20.8254 31.1397 20.7259 29.9302 19.3535C29.6999 19.6325 29.5135 19.9432 29.3742 20.2806C29.116 20.9061 29.0714 21.6366 29.2486 22.3376C29.847 24.7045 29.9839 26.5927 29.6674 28.1101C29.3436 29.6618 28.5859 30.5616 28.0442 31.1033L27.1374 32.0101C26.7078 32.4398 26.7078 33.1365 27.1374 33.5662L29.2832 35.7119C29.4059 35.8346 29.6048 35.8346 29.7276 35.7119L34.2508 31.1886C34.8041 30.6354 35.4478 30.1956 36.1642 29.8814Z" fill="#ADAFBB"/>
<path d="M8.57679 15.769L7.25189 16.3501C6.77167 16.5607 6.34009 16.8556 5.96927 17.2264L1.11333 22.0824C0.703062 22.4926 0.703062 23.1578 1.11333 23.568L6.18055 28.6353C6.59081 29.0455 7.25597 29.0455 7.66624 28.6353L10.1695 26.132C11.4657 24.8252 13.6013 24.9245 14.8108 26.297C15.0411 26.018 15.2275 25.7073 15.3668 25.3699C15.625 24.7444 15.6696 24.0138 15.4924 23.3129C14.5897 19.8672 14.5653 16.5416 16.6969 14.5471L17.6036 13.6404C18.0333 13.2107 18.0333 12.5141 17.6036 12.0844L15.4578 9.93856C15.3351 9.81584 15.1361 9.81585 15.0134 9.93857L10.4903 14.4617C9.93928 15.0127 9.29037 15.4561 8.57679 15.769Z" fill="#ADAFBB"/>
</g>
<defs>
<clipPath id="clip0">
<rect width="31.1127" height="31.1127" fill="white" transform="translate(0.370483 22.8252) rotate(-45)"/>
</clipPath>
</defs>
</svg>
