<svg width="21" height="25" viewBox="0 0 21 25" fill="none" xmlns="http://www.w3.org/2000/svg">
<path fill-rule="evenodd" clip-rule="evenodd" d="M0.997016 14.4011V14.1564C1.03292 13.4323 1.265 12.7307 1.66931 12.1239C2.3423 11.395 2.803 10.5019 3.00307 9.53809C3.00307 8.79321 3.00307 8.03768 3.06813 7.2928C3.40428 3.7067 6.95011 1.22729 10.4526 1.22729H10.5393C14.0418 1.22729 17.5876 3.7067 17.9346 7.2928C17.9997 8.03768 17.9346 8.79321 17.9888 9.53809C18.1916 10.5041 18.6518 11.4001 19.3226 12.1346C19.7299 12.7359 19.9624 13.435 19.9949 14.1564V14.3905C20.0191 15.3633 19.684 16.312 19.0515 17.0614C18.2156 17.9378 17.0814 18.483 15.8635 18.5938C12.2921 18.9769 8.6889 18.9769 5.11756 18.5938C3.90102 18.4782 2.76841 17.9338 1.92956 17.0614C1.3068 16.3114 0.976245 15.3684 0.997016 14.4011Z" stroke="#ADAFBB" stroke-width="1.5" stroke-linecap="round" stroke-linejoin="round"/>
<path d="M7.76318 22.2969C8.3212 22.9973 9.14064 23.4506 10.0402 23.5565C10.9397 23.6623 11.8451 23.412 12.556 22.8609C12.7747 22.6979 12.9714 22.5084 13.1416 22.2969" stroke="#ADAFBB" stroke-width="1.5" stroke-linecap="round" stroke-linejoin="round"/>
</svg>
