<svg width="23" height="23" viewBox="0 0 23 23" fill="none" xmlns="http://www.w3.org/2000/svg">
<g clip-path="url(#clip0)">
<path d="M19.1469 2.448H3.49302C1.74337 2.448 0.319946 3.87142 0.319946 5.62107V17.4672C0.319946 19.2169 1.74337 20.6403 3.49302 20.6403H19.1469C20.8965 20.6403 22.3199 19.2169 22.3199 17.4672V5.62107C22.3199 3.87142 20.8965 2.448 19.1469 2.448ZM21.0507 13.448H16.3969C15.3471 13.448 14.493 12.594 14.493 11.5441C14.493 10.4943 15.3471 9.64028 16.3969 9.64028H21.0507V13.448ZM21.0507 8.37107H16.3969C14.6472 8.37107 13.2238 9.79449 13.2238 11.5441C13.2238 13.2938 14.6472 14.7172 16.3969 14.7172H21.0507V17.4672C21.0507 18.517 20.1967 19.3711 19.1469 19.3711H3.49302C2.44325 19.3711 1.58916 18.517 1.58916 17.4672V5.62107C1.58916 4.5713 2.4432 3.71721 3.49302 3.71721H19.1469C20.1966 3.71721 21.0507 4.57126 21.0507 5.62107V8.37107Z" fill="#ADAFBB"/>
<path d="M17.2432 10.9095H16.3971C16.0466 10.9095 15.7625 11.1937 15.7625 11.5441C15.7625 11.8946 16.0466 12.1787 16.3971 12.1787H17.2432C17.5937 12.1787 17.8778 11.8946 17.8778 11.5441C17.8778 11.1937 17.5937 10.9095 17.2432 10.9095Z" fill="#ADAFBB"/>
</g>
<defs>
<clipPath id="clip0">
<rect width="22" height="22" fill="white" transform="translate(0.319946 0.544128)"/>
</clipPath>
</defs>
</svg>
